<svg fill="#B3DEC1" xmlns="http://www.w3.org/2000/svg" width="73.905" height="78.732" viewBox="0 0 73.905 78.732">
  <g id="Group_268" data-name="Group 268" transform="translate(-652.725 -204.356)">
    <g id="Group_267" data-name="Group 267">
      <g id="Group_266" data-name="Group 266">
        <g id="Group_265" data-name="Group 265">
          <g id="Group_264" data-name="Group 264">
            <path id="Path_42" data-name="Path 42" d="M725.926,241.933c-.546-.082-.788-.211-.759-.64-.3.066-.491.365-.818.5-.5-.432.574-.7.086-1.162-.212-.2-.369-.165-.53-.4-.148-.213-.136-.363-.394-.586a1.126,1.126,0,0,0-1.408-.225c-.319.11-1.451.393-1.435-.184-.344.01-.8.27-1.111.087-.432-.258.074-.442.18-.683.148-.334-.051-.423-.213-.681a.94.94,0,0,1-.238-.73,1.489,1.489,0,0,0-.813-1.594,3.9,3.9,0,0,0-1.035-.363c-.445-.056-.761.217-1.176.173-.226-.024-.249-.151-.372-.175-.065-.013-.514-.061-.546-.072-.424-.151-.48-.238-.19-.663-.146-.068-.249-.169-.389-.238-.269-.135-.484-.051-.737-.135-.477-.159-.957-.493-.663-.9-.722-.42-1.333-.036-2.063-.139-.492-.067-.461-.3-.693-.57a4.267,4.267,0,0,0-.7-.506c-.221-.17-.359-.6-.711-.656-.484-.073-.4.212-.585.4-.434.439-1.111.361-1.827.559-1.017.282-1.9.618-1.578,1.482a2.54,2.54,0,0,1-1.256-.048c-.4-.056-1.357-.257-1.213.231-.981.21-.347.791-1.09,1.007-.547.158-1.256-.1-1.811-.036a.169.169,0,0,1,0,.064c-.32.052-.674.178-.965.221a2.968,2.968,0,0,0-.482.023,2.328,2.328,0,0,0-1.925.735,2.994,2.994,0,0,1,.217,1.35,1.313,1.313,0,0,0-1.667-.306c-.156.062-.854.474-.983.545-.392.223-.5.109-.768.424-.054,0-.123,0-.24.005-.1.761-.556.634-1.15,1.013a.706.706,0,0,0-.309.418,1.2,1.2,0,0,0-.115.1,5.982,5.982,0,0,0-1.287,2.457c-2.811-.4-.889,1.795.754,1.977.783.085,1.473-.27,2.222.123.6.313,1.251.826,1.829,1.148.6.336.9.77,1.6.732.559-.031.968-.487,1.509-.466a.871.871,0,0,1,.176.338,3.4,3.4,0,0,1,.619.1c.193.29.242.61.854.674a1.038,1.038,0,0,0,.193,0c-.42.757-.85,1.521-1.326,2.261-.049.052-.1.1-.146.15a21.655,21.655,0,0,0-2.554,3.479c-.424.7-.85,1.345-1.279,1.967-.208.3-.423.586-.628.882-.1.146-.213.294-.32.437-.769,1-1.528,1.931-2.221,2.785-.34.44-.66.859-.965,1.253-.128.171-.25.332-.373.493-.036-.066-.072-.135-.114-.206-.1-.183-.178-.421-.276-.646-.391-.913-.724-2.063-.947-2.627-.182-.544-.412-1.187-.66-1.885-.193-.789-.408-1.556-.611-2.281-.21-.632-1.125-3.71-1.256-4.258-.063-.366-.12-.733-.156-1.107-.131-1.055-.283-2.117-.4-3.194-.027-.271-.055-.549-.08-.821s-.027-.519-.043-.791c-.043-.556-.039-1.14-.125-1.716-.079-.627-.166-1.264-.256-1.91-.045-.438-.085-.877-.127-1.314-.111-1.1-.216-2.191-.288-3.278a16.2,16.2,0,0,1,.017-3.194A6.291,6.291,0,0,1,685.8,228.3a12.421,12.421,0,0,1,3.13-2.847.408.408,0,0,1,.072.033c.332.2.53.46.957.364.411-.093.688-.509,1.132-.6.619-.118.865-.1,1.069-.751.318-.044.615.15.92.118.23-.023.324-.225.588-.174-.02-.1.033-.231.012-.328a.854.854,0,0,1,.58.162,1.651,1.651,0,0,0-.03.206c.43.144.658.421,1.05.044.179.536.9.233,1.337.249.415.017,1.036.2,1.226-.307.16-.428-.2-.643-.531-.792a1.516,1.516,0,0,1,.045-.278c.375.1.662-.164.965.16.161.173.023.444.4.469.291.017.413-.17.367-.462.265-.016.465.562.828.673a4.256,4.256,0,0,0,1.127.118c.227,0,.868.156,1.049.055.267-.153-.014-1.12.6-.733-.018.033-.04.055-.058.092.268.243,1.139.876,1.475.709.2-.1.271-.551.529-.667.117-.052.316,0,.447-.052s.24-.241.357-.3c.357-.182.637.128,1.059.1-.009-.051-.01-.112-.02-.156a5.1,5.1,0,0,1,1.666.329,2.266,2.266,0,0,0,.912.046c.309-.065.467-.412.736-.47.154-.031.385.165.594.131a1.686,1.686,0,0,0,.514-.3c.244-.139.59-.561.848-.515a3.323,3.323,0,0,1,.164-.4c.062-.219-.026-.817.1-.965.176-.206.541.283.865.289.934.018,2.033-.307,1.2-1.423s-.6.419-1.2-.79-.363-1.177-.363-1.177c-.117-.119-.5-.313-.7-.469l.055.005c-.427-.457-1.129-.207-1.478-.718-.136-.2-.007-.193-.219-.339-.181-.124-.428-.1-.614-.194-.234-.12-.56-.4-.554-.679-.491.149-.8-.848-1.374-.717-.221.05-1.1.645-1.119.031a.65.65,0,0,0-.281,0c-.107.5-.283.71-.817.353-.747-.5-.169-.876-.21-1.451-.26.036-.34-.192-.34-.422a1.279,1.279,0,0,1-.875-.217c.349-.331.42-.777-.089-.979-.19-.075-.294.066-.472-.087-.154-.131-.086-.354-.289-.472-.121-.072-.338-.021-.482-.094s-.2-.223-.371-.287a1.238,1.238,0,0,0-.771.016c-.148.1-.074.267-.188.388a.545.545,0,0,1-.994-.169,1.839,1.839,0,0,0-.583-.919c-.217-.213-.317-.478-.646-.548-.2-.041-.353.078-.547-.005s-.256-.357-.5-.4c-.15-.022-.346.107-.494.135a1.021,1.021,0,0,0-.795.386c-.205.241-.3.639-.594.795a.351.351,0,0,0,.021.078c-.55.2-.675-.44-1.159-.346-.1-.271-.339-.5-.423-.763s.039-.488-.035-.736c-.143-.475-.39-.279-.739-.39-.264-.085-.406-.313-.69-.4a3.567,3.567,0,0,0-1.748-.017c-.257.091-.949.29-1.07.527a1.988,1.988,0,0,1-.913-.212c-.542-.335-.425-.71-.579-1.241-.244-.838-.678-.585-1.451-.658.006-.71-.748-.256-1.083-.559-.391-.354.04-1.046-.274-1.459-.24-.313-.529-.148-.844-.252-.194-.063-.281-.188-.492-.232a1.63,1.63,0,0,0-1.123.021c-.334.14-.969.78-1.379.859a.719.719,0,0,1-.144-.352c-.339-.136-.646-.315-.923.041-.01-.049-.082-.133-.09-.211a4.73,4.73,0,0,0-1.072.16c-.42.167-.2.5-.356.862-.1.221-.218.176-.232.441s.214.241.051.559c-.21.41-.565.26-.914.3a3.237,3.237,0,0,1-.215,1.017c-.242.628-.492.136-.863.453-.258.224-.045.575-.449.75s-1.123.121-.964.9a.331.331,0,0,0,.175-.032c-.7.531-2.748,1.206-2.926,1.748-.093.283-.342.468-.453.749a7.2,7.2,0,0,1-.357.756c-.156.293-2.855.576-2.971.863-.109.271-.416.4-.5.687-.107.372.149,1.019-.136,1.316-.063.068-.277.042-.364.093a1.027,1.027,0,0,0-.365.413,5.7,5.7,0,0,0-.518,1c-.09.289-1.082.6-1.184.892-.111.309-.4.316-.532.554-.164.282-1.647.472-1.544.725.146.362.378.564-.025.614-1.15.141-1.76.777-1.654,1.106.074.235,2.51,1.057,2.285,1.205-1.293.865,3.193,1.008,4.123,1.307-.026.287.156.392.363.537a4.234,4.234,0,0,0,.377.222,2.226,2.226,0,0,0,1.287.088c.1.255.771.893.945.547.541.135,6.643.18,7.212.212-.1.893,1.872,1.27,2.3.677a1.109,1.109,0,0,0,.885.208c.142-.039.206-.141.286-.172.033-.013.147-.036.223-.058.1.314.2.631.306.946.219.7.454,1.41.6,2.126l.11.539c.033.178.03.359.046.537a10.279,10.279,0,0,1,.035,1.108c0,.755,0,1.51.006,2.258,0,.376-.01.748.01,1.121s.063.742.093,1.11c.05.74.147,1.455.243,2.154s.174,1.38.25,2.04c.033.33.09.655.1.975s.025.628.039.935q.036.938.07,1.8c.033.585.014,1.15.093,1.671s.134,1.008.192,1.457c.038.408.168.9.285,1.466s.256,1.2.461,1.851c.05.184.107.375.163.563.038.192.078.39.116.582.045.229.09.454.134.681-.006-.009-.013-.017-.018-.024a16.276,16.276,0,0,0-2.738-2.169c-.248-.163-.494-.328-.742-.494q-.337-.273-.676-.549c-.283-.226-.56-.459-.844-.689-.451-.444-.9-.888-1.388-1.311-.774-.637-1.62-1.078-2.351-1.594a4.123,4.123,0,0,1-.412-.312c.276-.211.551-.286.721.173.252-.244.006-.427.068-.689s.258-.327.32-.535a.4.4,0,0,0,.018-.122,7.034,7.034,0,0,0,1.215.051c1.731-.17,3.76-2.245.795-1.871a5.5,5.5,0,0,0-1.357-2.327,1.036,1.036,0,0,0-.841-.283.274.274,0,0,1-.038-.072c-.052-.24.256-.49.125-.736-.1-.193-.49-.131-.646-.342a1.23,1.23,0,0,1-.11-.74c-.426-.015-.746.077-.875-.344-.14-.445.262-.672-.112-1.122a3.76,3.76,0,0,0-.712-.479c-.387-.083-.779.472-.9-.021a.657.657,0,0,0-.559.065,1.859,1.859,0,0,0-1.7-.254,1.572,1.572,0,0,0-.02.171.477.477,0,0,0-.492.115c-.209-.01-.459-.012-.813-.025-.065,0-.135-.014-.207-.025-.021-.059-.042-.117-.062-.164-.159-.391.08-.43-.344-.74a2.626,2.626,0,0,0-.851-.3c-.533-.114-1.16-.1-1.034.63-.748-.068-1.792.608-2.514.207-.134.277-.208.048-.392.178-.111.079-.174.316-.267.363-.426.212-.405.212-.85-.131-.362-.277-.205-.527-.785-.341a1.365,1.365,0,0,0-.773.8.641.641,0,0,0-.078,1.276c-.15.115-.1.3-.009.51a7.343,7.343,0,0,1-1.782-.43c-1.085-.393-3.034-.236-3.588,1-.277.622.6.594.536,1.213-.046.42-.939.709-1.3.952a1.2,1.2,0,0,1-.212.1.258.258,0,0,0-.12.046,1.191,1.191,0,0,0-.418.218s-.006.01-.008.013a1.219,1.219,0,0,0-1.053,1.249c-.254.1-.521.2-.794.3a4.172,4.172,0,0,0-.839.145.615.615,0,0,0-.431.4c-.052.03-.107.055-.155.085a.929.929,0,0,0,.08.123.6.6,0,0,1-.256.345c.286.311.754.213,1.068.561.211-.118.354-.316.572-.365.067,0,.134,0,.2,0l.029,0c.066.472.586.434.833.111.089.117.3.188.37.25a3.385,3.385,0,0,1,0-.376c.553.036.629.054.838.2a.039.039,0,0,0,0,.015c.037.145-.129.243-.045.41.076.15.28.116.353.219a4.781,4.781,0,0,0,.382.592,3.7,3.7,0,0,0,.863.151c.176.005.375-.12.535-.1s.322.183.471.188a1.185,1.185,0,0,0,.382-.043,2.582,2.582,0,0,0,.68-.046,2.052,2.052,0,0,0,.6-.215c-.048.447.318.339.654.4.285.056.621.205.892.233a2.391,2.391,0,0,0,.569.422c.758.369,1.155.217,1.432-.089a3.207,3.207,0,0,0,1.512-.411c.364.939,1,.324,2.457.308.612-.009,1.244.363,1.824.311a.849.849,0,0,0,.707-.354,1.032,1.032,0,0,0,.479.253c.56.124.935-.381,1.423-.361.345.016.569.3.939.31.224.005.6-.069.818-.079a4.361,4.361,0,0,0,1.685-.41c.307.175.613.351.921.52.618.341,1.254.664,1.862,1.022a19.909,19.909,0,0,1,2.132,1.646,13.534,13.534,0,0,0,1.97,1.81,14.7,14.7,0,0,1,2.435,1.863,9.394,9.394,0,0,1,1.541,2.6c.187.809.384,1.675.593,2.459a16.492,16.492,0,0,1,.68,4.063c-.009.26-.017.495-.021.7-.033.2-.063.379-.086.522-.007.043-.012.076-.018.114a36.277,36.277,0,0,0-1.941,4.185c-.422.977-.912,1.956-1.191,2.815-.441-.376-.852-.686-1.082-.9a23.749,23.749,0,0,1-2.891-3.291l-.371-.5c-.118-.169-.221-.346-.333-.517-.206-.346-.468-.68-.628-1.015-.084-.166-.168-.328-.25-.488s-.13-.348-.2-.514c-.135-.346-.26-.675-.379-.98-.044-.077-.172-.285-.3-.486-.11-.311-.219-.619-.332-.917-.228-.717-.446-1.4-.648-2.026-.163-.373-.772-2.446-.773-2.077.132.627.281,1.345.446,2.133.213.775.387,1.635.664,2.513l.414,1.351c.143.461.324.913.486,1.382a13.208,13.208,0,0,0,.553,1.4,15.235,15.235,0,0,0,.67,1.379c.26.435.507.885.776,1.311l.831,1.238a17.9,17.9,0,0,1,1.478,2.276,7.118,7.118,0,0,1,.556,2.237c.043.36.063.721.09,1.06s.046.663.041.934a28.587,28.587,0,0,1-.289,4.134c-.018.2-.037.4-.059.6-.023.158-.049.314-.072.465a1.793,1.793,0,0,1-.129.423,1.861,1.861,0,0,1-.158.379,7.98,7.98,0,0,1-.571.909c-.005.008-.008.008-.008.008-.159.136-.261.235-.341.318h7.486c-.095-.2-.2-.423-.309-.674a33.679,33.679,0,0,1-1.275-4.127c-.227-.816-.45-1.656-.654-2.494-.085-.333-.16-.659-.234-.986a8.553,8.553,0,0,1-.014-1.183c.028-.434.059-.889.09-1.353.053-.466.109-.943.164-1.424.113-.964.217-1.945.4-2.845.03-.181.057-.351.087-.526.184-.485.363-.962.526-1.412q.77-1.525,1.618-3.211a56.723,56.723,0,0,1,3.234-5.266c.219-.286.438-.567.66-.868.34-.441.68-.9.992-1.392s.666-.974.963-1.486c.168-.282.342-.566.512-.851l.941-1.354c.43-.627.869-1.235,1.28-1.864a11.253,11.253,0,0,1,1.6-1.553c.769-.611,1.565-1.182,2.367-1.713.553.106.863.1,1.074-.634a6,6,0,0,1,.59-.207,2.05,2.05,0,0,1,.326-.041c.361.619.589,1.582,1.832.907.5-.272.783-.846,1.285-1.056.75-.313.554,0,1.285.165.027.005.049.005.075.009a6.535,6.535,0,0,0,.727.382c.548.146,1.118-.363,1.806-.324.58.036,1.385.453,1.982.222.576-.224.525-.9,1.227-1.122-.066.55.427.325.842.479.456.169.487.421,1.114.476,1.028.092,1.487-.353,2.388-.49.367-.058,1.021.127,1.324-.039s.17-.512.529-.717c.3-.169.738-.118.995-.313.349-.263.042-.421.685-.573,1.412-.335,2.664-.295,3.787-1.1C726.111,242.4,725.755,242.43,725.926,241.933Zm-40.769-13.488c-.04.065-.072.132-.109.2.031-.188.066-.379.113-.573.076-.311.152-.633.229-.953.033-.1.069-.189.1-.281a.983.983,0,0,0,.422-.1c.443-.217.407-.552,1-.559a1.322,1.322,0,0,0,.357-.038A8.908,8.908,0,0,0,685.157,228.445Zm2.319-2.458c.065-.145.039-.379.119-.73a.4.4,0,0,1,.5.283c-.162.116-.326.23-.489.349C687.56,225.921,687.519,225.955,687.476,225.987Zm-2.995,1.942c-.1.392-.16.762-.215,1.1-.255-.938-.576-1.829-.875-2.7a1.183,1.183,0,0,1,.879.05c.18.091.371.205.573.3-.034.089-.071.175-.1.265C684.655,227.27,684.568,227.6,684.481,227.929Zm17.366,18.461c-.295.2-.6.383-.891.589l-.871.637-.106.079c.217-.4.426-.8.633-1.193a2.762,2.762,0,0,1,.838-.171,4.057,4.057,0,0,1,.445.029A.388.388,0,0,0,701.847,246.39Z"/>
          </g>
        </g>
      </g>
    </g>
  </g>
</svg>
